<svg xmlns="http://www.w3.org/2000/svg" viewBox="0 0 638 102.25"><defs><style>.cls-1{fill:#707070;}</style></defs><g id="Layer_2" data-name="Layer 2"><g id="Layer_1-2" data-name="Layer 1"><path class="cls-1" d="M157.52,79.08c-5.1-1.35-9.55-2.32-13.15-3a51.81,51.81,0,0,0-12.75-1.32c-.29,0-1.56.07-3.11.24-8.67.93-15.44,4.24-21.84,7.43-5.87,2.92-8.06,4.62-9.52,5.9-2.44,2.14-6,5.93-5.33,6.94S96,94.2,102.71,91.51c9.87-3.94,24.08-8.44,26.43-12a10.2,10.2,0,0,1,2.8-3.32c.86-.61,1.57-1,1.5-1.23-.11-.42-2.12-.18-3.58-.07-3.64.27-6.42-.12-11.77-.86-2.58-.36-3.42-.61-6.1-.88-3.06-.3-2.9-.07-4-.38s-1.85-.61-2.73-.26c-.59.23-.71.57-1.5,1.23a12.64,12.64,0,0,1-2.34,1.43C98.81,76.54,87.11,80.14,81,82.83c-6.73,3-10.81,6.72-14.37,10-1.43,1.31-5.74,5.24-5,6.29.28.44,1.45.44,7.82-2,6.74-2.58,10.11-3.86,13.32-5.78,5.79-3.46,4.74-4.46,13.35-11.17,7.23-5.63,9.76-6.32,10.28-9.42.42-2.49-1.28-5.21-4.68-10.53a61.86,61.86,0,0,0-7.84-10.36,57.74,57.74,0,0,0-14.53-11c-2.61-1.45-8.89-5-10-3.58-.6.72.46,2.55,1.83,4.65A85.48,85.48,0,0,0,82.66,54.22c7.82,7.35,11.73,11,16.84,12.73,1.45.49,2.47,1.48,4.91,2.91.55.32,1.53.89,1.51,1.66a1.47,1.47,0,0,1-.65,1,56.64,56.64,0,0,0-17.43-2.24A54.23,54.23,0,0,0,75.68,72S61.31,75.94,52.37,86.58c-3.46,4.1-2.12,4.28-7.32,11.48-.78,1.08-2.28,3.11-1.69,3.89.18.25.75.59,3.16-.16a22.85,22.85,0,0,0,8.3-4.88c6.29-5.8,5.12-3.6,10.92-9.14,6.83-6.53,5.93-9.4,10.19-11,2-.76,4.2-1,7.46-2.93,1.92-1.16,4.12-2.5,3.92-3.69-.24-1.48-4.68-1.36-14.39-2.41-3.51-.38-6.36-.76-8.18-1a16.16,16.16,0,0,1-3.08,3.84c-1,.91-4,2.57-9.6,4.31-5.94,1.84-11.12.31-18.49-1.87-9.48-2.8-18.25-7.54-17.88-8.55.14-.41,2.54,0,7.33.87,6.22,1.12,10,2.06,13.46,2.77a72.56,72.56,0,0,0,13.1,1.84c7.2.25,13.94-.89,14.31-3,.09-.47-.21-1.44-.81-3.39-.31-1-.59-1.78-.63-1.88-1.27-3.21-1.7-10.73-2-13.21-.67-6.1-3.62-10.49-6.15-14.25-3.9-5.81-9-10.15-9.7-9.63-.36.28.42,2,1.63,4.76C47,30.86,47.55,32,47.56,32c4,7.58,6.08,11.36,7.08,13.89,1.85,4.69,1.15,6.17,1.68,8.46a10.67,10.67,0,0,0,1.14,2.8c2.52,4.81,6.06,9,6.24,8.92s-.19-.85-.19-.85h0a11.86,11.86,0,0,0-2.08-1.3,5.14,5.14,0,0,0-2.74-.27c-2.85.3-10-1.42-13.23-5.54-.73-1-.85-2.11-1.18-4.38a30.24,30.24,0,0,1,1.19-13.37c3.63-11.93,1.72-29.24-.95-29.75-1.84-.35-4.71,7.19-5,7.87a31,31,0,0,0-1.72,9.29,55.17,55.17,0,0,0,1.48,16.08,59.08,59.08,0,0,0,5.79,14.9,55.52,55.52,0,0,1-7.23-6.26c-1.32-1.36-6.95-7.13-12.44-19.31-3.81-8.47-9-22.59-9.89-25.15C14,3.76,12.63-.14,11.31,0,9.75.17,9.07,5.86,8.93,9A38.82,38.82,0,0,0,13.1,27.8C15.73,33,19,36.45,25.66,43.3A122.63,122.63,0,0,0,41.31,57.52c3,2.27,5.2,3.52,5,4-.46,1-9.25-2.31-18.81-5.88a50,50,0,0,1-7.35-3.19c-4-2.19-4.76-3.27-8.89-6.18-3.81-2.7-9.89-6-11-4.8-.94,1,1.72,4.88,2.2,5.58C9,56.71,20.8,59.75,25,60.77a53.78,53.78,0,0,0,17.19,1.31"/><path class="cls-1" d="M141.3,72c.19-.26-1.7-1.59-4.71-5.14A58.31,58.31,0,0,1,130.41,58c-5.25-9-3.32-11.11-7.25-17.05-4.78-7.23-12.34-11.25-13.23-10.39-.47.46,1.12,2.15,3.22,6.8,2.29,5.07,2.16,7,3.75,10.9A37.24,37.24,0,0,0,123.81,59C131.35,67.9,140.88,72.57,141.3,72Z"/><path class="cls-1" d="M75.57,58.08a3.59,3.59,0,0,0-2.06,3,4.12,4.12,0,0,0,1.75,3.08c1.95,1.68,5.51,2.63,6.87,1.06,1.13-1.29.19-3.63.12-3.81C81.18,58.81,77.85,57,75.57,58.08Z"/><path class="cls-1" d="M74.53,54a3.07,3.07,0,0,0,.66-3,3.57,3.57,0,0,0-2.42-1.88c-2.11-.69-5.26-.27-5.84,1.43-.47,1.41,1,3,1.17,3.09C69.8,55.32,73.06,55.64,74.53,54Z"/><path class="cls-1" d="M51.59,81.3a3.57,3.57,0,0,0-.69-3.54,4.1,4.1,0,0,0-3.43-.89c-2.56.22-5.72,2.11-5.55,4.18.14,1.71,2.47,2.67,2.65,2.74C47.15,84.82,50.76,83.67,51.59,81.3Z"/><path class="cls-1" d="M185.76,45.17h5.39V64.85c-5,4.35-12.14,6.56-19.49,6.56-16.16,0-28-11.13-28-26.24s11.83-26.24,28.06-26.24c8,0,15,2.5,19.72,7.44L188,29.84c-4.47-4.28-9.78-6.05-16-6.05-13.12,0-22.75,9.07-22.75,21.38s9.63,21.38,22.67,21.38a23.47,23.47,0,0,0,13.88-4Z"/><path class="cls-1" d="M233.16,46.94V71H228v-6c-2.43,4-7.13,6.41-13.73,6.41-9,0-14.56-4.57-14.56-11.28,0-6,3.94-11,15.39-11h12.67V46.72c0-6.64-3.87-10.25-11.3-10.25A20.72,20.72,0,0,0,203.2,41l-2.42-3.9c4-3.32,9.93-5.24,16.23-5.24C227.32,31.9,233.16,36.91,233.16,46.94Zm-5.38,12.38V53H215.26c-7.73,0-10.24,3-10.24,6.93,0,4.5,3.72,7.3,10.09,7.3C221.18,67.21,225.65,64.41,227.78,59.32Z"/><path class="cls-1" d="M241.33,66.55l2.42-4.13a24.61,24.61,0,0,0,14.19,4.35c7.58,0,10.69-2.51,10.69-6.34,0-10.1-25.86-2.14-25.86-17.47,0-6.34,5.61-11.06,15.77-11.06,5.16,0,10.77,1.4,14.11,3.61l-2.35,4.2a21,21,0,0,0-11.76-3.31c-7.2,0-10.39,2.73-10.39,6.41,0,10.47,25.87,2.58,25.87,17.47C274,67,268,71.34,257.56,71.34,251,71.34,244.59,69.27,241.33,66.55Z"/><path class="cls-1" d="M305.9,68.61a13.1,13.1,0,0,1-8.42,2.73c-7.51,0-11.68-4.13-11.68-11.28V36.62h-7.13V32.2h7.13V23.72h5.38V32.2h12.14v4.42H291.18V59.77c0,4.57,2.43,7.07,6.91,7.07a9.06,9.06,0,0,0,5.91-2Z"/><path class="cls-1" d="M335.78,31.9V37c-.46,0-.91-.08-1.29-.08-8.34,0-13.42,5.16-13.42,14.3V71h-5.39V32.2h5.16v7.59C323.34,34.63,328.42,31.9,335.78,31.9Z"/><path class="cls-1" d="M338.28,51.58c0-11.5,8.64-19.68,20.33-19.68s20.25,8.18,20.25,19.68-8.57,19.76-20.25,19.76S338.28,63.08,338.28,51.58Zm35.12,0c0-9.06-6.3-15.11-14.79-15.11s-14.87,6.05-14.87,15.11,6.37,15.11,14.87,15.11S373.4,60.65,373.4,51.58Z"/><path class="cls-1" d="M423.75,48.49V71h-5.38V49c0-8.18-4.4-12.38-12-12.38-8.57,0-13.95,5.16-13.95,14V71H387V32.2h5.16v7.15c2.88-4.72,8.27-7.45,15.17-7.45C417.08,31.9,423.75,37.36,423.75,48.49Z"/><path class="cls-1" d="M431.71,51.58c0-11.5,8.65-19.68,20.33-19.68s20.25,8.18,20.25,19.68S463.72,71.34,452,71.34,431.71,63.08,431.71,51.58Zm35.12,0c0-9.06-6.3-15.11-14.79-15.11s-14.87,6.05-14.87,15.11S443.54,66.69,452,66.69,466.83,60.65,466.83,51.58Z"/><path class="cls-1" d="M546.31,48.49V71h-5.38V49c0-8.18-4.25-12.38-11.46-12.38-8.19,0-13.35,5.16-13.35,14V71h-5.38V49c0-8.18-4.25-12.38-11.53-12.38-8.12,0-13.35,5.16-13.35,14V71h-5.38V32.2h5.15v7.07c2.81-4.64,8-7.37,14.64-7.37s11.76,2.73,14.18,8.18c2.89-5,8.58-8.18,15.78-8.18C539.94,31.9,546.31,37.36,546.31,48.49Z"/><path class="cls-1" d="M593,53.21H559.65c.61,8.1,7,13.48,15.7,13.48a16,16,0,0,0,12.22-5.08l3,3.39c-3.57,4.13-9.1,6.34-15.4,6.34-12.44,0-20.93-8.26-20.93-19.76s8.27-19.68,19.49-19.68,19.34,8,19.34,19.68C593.1,52,593,52.62,593,53.21ZM559.65,49.3h28.29a14.21,14.21,0,0,0-28.29,0Z"/><path class="cls-1" d="M638,48.49V71h-5.39V49c0-8.18-4.4-12.38-12-12.38-8.57,0-14,5.16-14,14V71h-5.38V32.2h5.16v7.15c2.88-4.72,8.26-7.45,15.16-7.45C631.32,31.9,638,37.36,638,48.49Z"/><rect class="cls-1" x="165.84" y="45.13" width="25.31" height="4.2"/></g></g></svg>